<?xml version="1.0" encoding="UTF-8" standalone="no"?>
<!-- Created with Inkscape (http://www.inkscape.org/) -->

<svg
   xmlns:dc="http://purl.org/dc/elements/1.1/"
   xmlns:cc="http://creativecommons.org/ns#"
   xmlns:rdf="http://www.w3.org/1999/02/22-rdf-syntax-ns#"
   xmlns:svg="http://www.w3.org/2000/svg"
   xmlns="http://www.w3.org/2000/svg"
   xmlns:sodipodi="http://sodipodi.sourceforge.net/DTD/sodipodi-0.dtd"
   xmlns:inkscape="http://www.inkscape.org/namespaces/inkscape"
   width="1417.3228"
   height="1062.9921"
   id="svg2"
   version="1.1"
   inkscape:version="0.48.4 r9939"
   sodipodi:docname="drumduino.svg">
  <sodipodi:namedview
     id="base"
     pagecolor="#ffffff"
     bordercolor="#666666"
     borderopacity="1.0"
     inkscape:pageopacity="0.0"
     inkscape:pageshadow="2"
     inkscape:zoom="0.32455557"
     inkscape:cx="585.64001"
     inkscape:cy="520.27501"
     inkscape:document-units="px"
     inkscape:current-layer="layer1"
     showgrid="true"
     inkscape:window-width="1600"
     inkscape:window-height="877"
     inkscape:window-x="-8"
     inkscape:window-y="-8"
     inkscape:window-maximized="1"
     units="mm">
    <inkscape:grid
       spacingy="1mm"
       spacingx="1mm"
       units="mm"
       snapvisiblegridlinesonly="true"
       enabled="true"
       visible="true"
       empspacing="10"
       id="grid2985"
       type="xygrid" />
  </sodipodi:namedview>
  <defs
     id="defs4" />
  <metadata
     id="metadata7">
    <rdf:RDF>
      <cc:Work
         rdf:about="">
        <dc:format>image/svg+xml</dc:format>
        <dc:type
           rdf:resource="http://purl.org/dc/dcmitype/StillImage" />
        <dc:title />
      </cc:Work>
    </rdf:RDF>
  </metadata>
  <g
     transform="translate(0,10.62995)"
     id="layer1"
     inkscape:groupmode="layer"
     inkscape:label="Layer 1">
    <path
       id="rect2987"
       d="m 42.520777,-3.5401673 c -19.629921,0 -35.4375,15.7763293 -35.4375,35.4062503 l 0,977.968717 c 0,19.6299 15.807579,35.4375 35.4375,35.4375 l 1332.281323,0 c 19.6295,0 35.4374,-15.8076 35.4374,-35.4375 l 0,-977.968717 c 0,-19.629921 -15.8079,-35.4062503 -35.4374,-35.4062503 l -1332.281323,0 z m 42.46875,17.6875003 126.218753,0 0,14.1875 -126.218753,0 0,-14.1875 z m 252.468753,0 126.21875,0 0,14.1875 -126.21875,0 0,-14.1875 z m 616.1875,0 126.21872,0 0,14.1875 -126.21872,0 0,-14.1875 z m 252.43752,0 126.25,0 0,14.1875 -126.25,0 0,-14.1875 z m -1181.281273,64.90625 14.15625,0 0,126.218747 -14.15625,0 0,-126.218747 z m 1353.531273,0 14.1875,0 0,126.218747 -14.1875,0 0,-126.218747 z M 24.802027,331.52233 l 14.15625,0 0,126.21875 -14.15625,0 0,-126.21875 z m 1353.531273,0 14.1875,0 0,126.21875 -14.1875,0 0,-126.21875 z m -1353.531273,252.4375 14.15625,0 0,126.25 -14.15625,0 0,-126.25 z m 1353.531273,0 14.1875,0 0,126.25 -14.1875,0 0,-126.25 z M 24.802027,836.42858 l 14.15625,0 0,126.21875 -14.15625,0 0,-126.21875 z m 1353.531273,0 14.1875,0 0,126.21875 -14.1875,0 0,-126.21875 z M 84.989527,1013.3661 l 126.218753,0 0,14.1874 -126.218753,0 0,-14.1874 z m 252.468753,0 126.21875,0 0,14.1874 -126.21875,0 0,-14.1874 z m 616.1875,0 126.21872,0 0,14.1874 -126.21872,0 0,-14.1874 z m 252.43752,0 126.25,0 0,14.1874 -126.25,0 0,-14.1874 z"
       style="opacity:0.6;fill:#ff0000;fill-opacity:1;stroke:none"
       inkscape:connector-curvature="0" />
    <rect
       y="-3.5433412"
       x="541.59448"
       height="1048.8188"
       width="334.13385"
       id="rect3028"
       style="opacity:0.6;fill:#0000ff;fill-opacity:1;stroke:none" />
    <path
       id="rect3224"
       d="m 1217.7025,1176.8514 0,14.1563 -77.9062,0 c -58.8898,0 -106.3125,47.4302 -106.3125,106.3124 0,58.8828 47.4227,106.2813 106.3125,106.2813 l 77.9062,0 0,14.1875 126.2187,0 0,-14.1875 126.2188,0 0,14.1875 126.25,0 0,-14.1875 60.1875,0 0,-212.5937 -60.1875,0 0,-14.1563 -126.25,0 0,14.1563 -126.2188,0 0,-14.1563 -126.2187,0 z m 10.125,49.5937 215.4375,0 0,70.875 -215.4375,0 0,-70.875 z"
       style="opacity:0.6;fill:#ff0000;fill-opacity:1;stroke:none"
       inkscape:connector-curvature="0" />
    <path
       id="path3271"
       d="m 1189.9723,-432.98631 0,14.15625 -77.9063,0 c -58.8897,0 -106.3125,47.4301 -106.3125,106.3125 0,58.8824 47.4228,106.28125 106.3125,106.28125 l 77.9063,0 0,14.1875 126.2187,0 0,-14.1875 126.2188,0 0,14.1875 126.25,0 0,-14.1875 60.1875,0 0,-212.59375 -60.1875,0 0,-14.15625 -126.25,0 0,14.15625 -126.2188,0 0,-14.15625 -126.2187,0 z m -10.5938,150.9375 46.0625,0 0,40.375 -46.0625,0 0,-40.375 z m 113.3751,0.71875 32.5937,0 0,39.65625 -32.5937,0 0,-39.65625 z"
       style="opacity:0.6;fill:#ff0000;fill-opacity:1;stroke:none"
       inkscape:connector-curvature="0" />
    <path
       id="rect3185"
       d="m 1771.6562,28.350433 0,50.71875 -14.1874,0 0,126.218747 14.1874,0 0,126.25 -14.1874,0 0,126.21875 14.1874,0 0,126.21875 -14.1874,0 0,126.25 14.1874,0 0,126.21875 -14.1874,0 0,126.21875 14.1874,0 0,50.71877 212.5938,0 0,-50.71877 14.1875,0 0,-126.21875 -14.1875,0 0,-126.21875 14.1875,0 0,-126.25 -14.1875,0 0,-126.21875 14.1875,0 0,-126.21875 -14.1875,0 0,-126.25 14.1875,0 0,-126.218747 -14.1875,0 0,-50.71875 -212.5938,0 z m 65.5626,27.5625 c 8.8333,0 15.9374,7.104036 15.9374,15.9375 0,8.833464 -7.1041,15.96875 -15.9374,15.96875 -8.8358,0 -15.9688,-7.135286 -15.9688,-15.96875 0,-8.833464 7.133,-15.9375 15.9688,-15.9375 z m 81.4687,0 c 8.8335,0 15.9687,7.104036 15.9687,15.9375 0,8.833464 -7.1352,15.96875 -15.9687,15.96875 -8.8335,0 -15.9375,-7.135286 -15.9375,-15.96875 0,-8.833464 7.104,-15.9375 15.9375,-15.9375 z m -81.4687,81.656247 c 8.8333,0 15.9374,7.10404 15.9374,15.9375 0,8.83346 -7.1041,15.9375 -15.9374,15.9375 -8.8357,0 -15.9688,-7.10404 -15.9688,-15.9375 0,-8.83346 7.1331,-15.9375 15.9688,-15.9375 z m 81.4687,0 c 8.8335,0 15.9687,7.10404 15.9687,15.9375 0,8.83346 -7.1352,15.9375 -15.9687,15.9375 -8.8335,0 -15.9375,-7.10404 -15.9375,-15.9375 0,-8.83346 7.104,-15.9375 15.9375,-15.9375 z m -81.4687,81.625 c 8.8333,0 15.9374,7.10404 15.9374,15.9375 0,8.83346 -7.1041,15.9375 -15.9374,15.9375 -8.8356,0 -15.9688,-7.10404 -15.9688,-15.9375 0,-8.83346 7.1332,-15.9375 15.9688,-15.9375 z m 81.4687,0 c 8.8335,0 15.9687,7.10404 15.9687,15.9375 0,8.83346 -7.1352,15.9375 -15.9687,15.9375 -8.8335,0 -15.9375,-7.10404 -15.9375,-15.9375 0,-8.83346 7.104,-15.9375 15.9375,-15.9375 z m -81.4687,81.625 c 8.8333,0 15.9374,7.13529 15.9374,15.96875 0,8.83346 -7.1041,15.9375 -15.9374,15.9375 -8.8355,0 -15.9688,-7.10404 -15.9688,-15.9375 0,-8.83346 7.1333,-15.96875 15.9688,-15.96875 z m 81.4687,0 c 8.8335,0 15.9687,7.13529 15.9687,15.96875 0,8.83346 -7.1352,15.9375 -15.9687,15.9375 -8.8335,0 -15.9375,-7.10404 -15.9375,-15.9375 0,-8.83346 7.104,-15.96875 15.9375,-15.96875 z m -81.4687,81.65625 c 8.8333,0 15.9374,7.10404 15.9374,15.9375 0,8.83346 -7.1041,15.9375 -15.9374,15.9375 -8.8354,0 -15.9688,-7.10404 -15.9688,-15.9375 0,-8.83346 7.1334,-15.9375 15.9688,-15.9375 z m 81.4687,0 c 8.8335,0 15.9687,7.10404 15.9687,15.9375 0,8.83346 -7.1352,15.9375 -15.9687,15.9375 -8.8335,0 -15.9375,-7.10404 -15.9375,-15.9375 0,-8.83346 7.104,-15.9375 15.9375,-15.9375 z m -81.4687,81.625 c 8.8333,0 15.9374,7.10404 15.9374,15.9375 0,8.83346 -7.1041,15.96875 -15.9374,15.96875 -8.8353,0 -15.9688,-7.13529 -15.9688,-15.96875 0,-8.83346 7.1335,-15.9375 15.9688,-15.9375 z m 81.4687,0 c 8.8335,0 15.9687,7.10404 15.9687,15.9375 0,8.83346 -7.1352,15.96875 -15.9687,15.96875 -8.8335,0 -15.9375,-7.13529 -15.9375,-15.96875 0,-8.83346 7.104,-15.9375 15.9375,-15.9375 z m -81.4687,81.65625 c 8.8333,0 15.9374,7.10404 15.9374,15.9375 0,8.83346 -7.1041,15.9375 -15.9374,15.9375 -8.8352,0 -15.9688,-7.10404 -15.9688,-15.9375 0,-8.83346 7.1336,-15.9375 15.9688,-15.9375 z m 81.4687,0 c 8.8335,0 15.9687,7.10404 15.9687,15.9375 0,8.83346 -7.1352,15.9375 -15.9687,15.9375 -8.8335,0 -15.9375,-7.10404 -15.9375,-15.9375 0,-8.83346 7.104,-15.9375 15.9375,-15.9375 z m -81.4687,81.625 c 8.8333,0 15.9374,7.10404 15.9374,15.9375 0,8.83346 -7.1041,15.9375 -15.9374,15.9375 -8.8351,0 -15.9688,-7.10404 -15.9688,-15.9375 0,-8.83346 7.1337,-15.9375 15.9688,-15.9375 z m 81.4687,0 c 8.8335,0 15.9687,7.10404 15.9687,15.9375 0,8.83346 -7.1352,15.9375 -15.9687,15.9375 -8.8335,0 -15.9375,-7.10404 -15.9375,-15.9375 0,-8.83346 7.104,-15.9375 15.9375,-15.9375 z m -81.4687,81.625 c 8.8333,0 15.9374,7.13529 15.9374,15.96875 0,8.83346 -7.1041,15.9375 -15.9374,15.9375 -8.835,0 -15.9688,-7.10404 -15.9688,-15.9375 0,-8.83346 7.1338,-15.96875 15.9688,-15.96875 z m 81.4687,0 c 8.8335,0 15.9687,7.13529 15.9687,15.96875 0,8.83346 -7.1352,15.9375 -15.9687,15.9375 -8.8335,0 -15.9375,-7.10404 -15.9375,-15.9375 0,-8.83346 7.104,-15.96875 15.9375,-15.96875 z m -81.4687,81.65625 c 8.8333,0 15.9374,7.10404 15.9374,15.9375 0,8.83346 -7.1041,15.9375 -15.9374,15.9375 -8.834,0 -15.9688,-7.10404 -15.9688,-15.9375 0,-8.83346 7.1348,-15.9375 15.9688,-15.9375 z m 81.4687,0 c 8.8335,0 15.9687,7.10404 15.9687,15.9375 0,8.83346 -7.1352,15.9375 -15.9687,15.9375 -8.8335,0 -15.9375,-7.10404 -15.9375,-15.9375 0,-8.83346 7.104,-15.9375 15.9375,-15.9375 z m -81.4687,81.625 c 8.8333,0 15.9374,7.10404 15.9374,15.9375 0,8.83346 -7.1041,15.96875 -15.9374,15.96875 -8.8336,0 -15.9688,-7.13529 -15.9688,-15.96875 0,-8.83346 7.1352,-15.9375 15.9688,-15.9375 z m 81.4687,0 c 8.8335,0 15.9687,7.10404 15.9687,15.9375 0,8.83346 -7.1352,15.96875 -15.9687,15.96875 -8.8335,0 -15.9375,-7.13529 -15.9375,-15.96875 0,-8.83346 7.104,-15.9375 15.9375,-15.9375 z m -81.4687,81.65625 c 8.8334,0 15.9374,7.10404 15.9374,15.9375 0,8.83346 -7.104,15.93745 -15.9374,15.93745 -8.8335,0 -15.9688,-7.10399 -15.9688,-15.93745 0,-8.83346 7.1353,-15.9375 15.9688,-15.9375 z m 81.4687,0 c 8.8335,0 15.9687,7.10404 15.9687,15.9375 0,8.83346 -7.1352,15.93745 -15.9687,15.93745 -8.8335,0 -15.9375,-7.10399 -15.9375,-15.93745 0,-8.83346 7.104,-15.9375 15.9375,-15.9375 z"
       style="opacity:0.6;fill:#ff0000;fill-opacity:1;stroke:none"
       inkscape:connector-curvature="0" />
    <path
       id="path3218"
       d="m 541.59445,-3.5433173 0,39.9303413 m 0,10.629921 0,69.230765 m 0,10.62992 0,69.23076 m 0,10.62992 0,69.23076 m 0,10.62992 0,69.23077 m 0,10.62992 0,69.23076 m 0,10.62992 0,69.23076 m 0,10.62992 0,69.23077 m 0,10.62992 0,69.23076 m 0,10.62992 0,69.23076 m 0,10.62992 0,69.23076 m 0,10.62993 0,69.23076 m 0,10.62992 0,69.23076 m 0,10.62988 0,39.9304 m 10.44168,-1048.8188173 0,39.9303413 m 0,10.629921 0,69.230765 m 0,10.62992 0,69.23076 m 0,10.62992 0,69.23076 m 0,10.62992 0,69.23077 m 0,10.62992 0,69.23076 m 0,10.62992 0,69.23076 m 0,10.62992 0,69.23077 m 0,10.62992 0,69.23076 m 0,10.62992 0,69.23076 m 0,10.62992 0,69.23076 m 0,10.62993 0,69.23076 m 0,10.62992 0,69.23076 m 0,10.62988 0,39.9304 m 10.44169,-1048.8188173 0,39.9303413 m 0,10.629921 0,69.230765 m 0,10.62992 0,69.23076 m 0,10.62992 0,69.23076 m 0,10.62992 0,69.23077 m 0,10.62992 0,69.23076 m 0,10.62992 0,69.23076 m 0,10.62992 0,69.23077 m 0,10.62992 0,69.23076 m 0,10.62992 0,69.23076 m 0,10.62992 0,69.23076 m 0,10.62993 0,69.23076 m 0,10.62992 0,69.23076 m 0,10.62988 0,39.9304 M 572.9195,-3.5433173 l 0,39.9303413 m 0,10.629921 0,69.230765 m 0,10.62992 0,69.23076 m 0,10.62992 0,69.23076 m 0,10.62992 0,69.23077 m 0,10.62992 0,69.23076 m 0,10.62992 0,69.23076 m 0,10.62992 0,69.23077 m 0,10.62992 0,69.23076 m 0,10.62992 0,69.23076 m 0,10.62992 0,69.23076 m 0,10.62993 0,69.23076 m 0,10.62992 0,69.23076 m 0,10.62988 0,39.9304 m 10.44168,-1048.8188173 0,39.9303413 m 0,10.629921 0,69.230765 m 0,10.62992 0,69.23076 m 0,10.62992 0,69.23076 m 0,10.62992 0,69.23077 m 0,10.62992 0,69.23076 m 0,10.62992 0,69.23076 m 0,10.62992 0,69.23077 m 0,10.62992 0,69.23076 m 0,10.62992 0,69.23076 m 0,10.62992 0,69.23076 m 0,10.62993 0,69.23076 m 0,10.62992 0,69.23076 m 0,10.62988 0,39.9304 m 10.44168,-1048.8188173 0,39.9303413 m 0,10.629921 0,69.230765 m 0,10.62992 0,69.23076 m 0,10.62992 0,69.23076 m 0,10.62992 0,69.23077 m 0,10.62992 0,69.23076 m 0,10.62992 0,69.23076 m 0,10.62992 0,69.23077 m 0,10.62992 0,69.23076 m 0,10.62992 0,69.23076 m 0,10.62992 0,69.23076 m 0,10.62993 0,69.23076 m 0,10.62992 0,69.23076 m 0,10.62988 0,39.9304 m 10.44169,-1048.8188173 0,39.9303413 m 0,10.629921 0,69.230765 m 0,10.62992 0,69.23076 m 0,10.62992 0,69.23076 m 0,10.62992 0,69.23077 m 0,10.62992 0,69.23076 m 0,10.62992 0,69.23076 m 0,10.62992 0,69.23077 m 0,10.62992 0,69.23076 m 0,10.62992 0,69.23076 m 0,10.62992 0,69.23076 m 0,10.62993 0,69.23076 m 0,10.62992 0,69.23076 m 0,10.62988 0,39.9304 m 10.44168,-1048.8188173 0,39.9303413 m 0,10.629921 0,69.230765 m 0,10.62992 0,69.23076 m 0,10.62992 0,69.23076 m 0,10.62992 0,69.23077 m 0,10.62992 0,69.23076 m 0,10.62992 0,69.23076 m 0,10.62992 0,69.23077 m 0,10.62992 0,69.23076 m 0,10.62992 0,69.23076 m 0,10.62992 0,69.23076 m 0,10.62993 0,69.23076 m 0,10.62992 0,69.23076 m 0,10.62988 0,39.9304 m 10.44168,-1048.8188173 0,39.9303413 m 0,10.629921 0,69.230765 m 0,10.62992 0,69.23076 m 0,10.62992 0,69.23076 m 0,10.62992 0,69.23077 m 0,10.62992 0,69.23076 m 0,10.62992 0,69.23076 m 0,10.62992 0,69.23077 m 0,10.62992 0,69.23076 m 0,10.62992 0,69.23076 m 0,10.62992 0,69.23076 m 0,10.62993 0,69.23076 m 0,10.62992 0,69.23076 m 0,10.62988 0,39.9304 M 635.5696,-3.5433173 l 0,39.9303413 m 0,10.629921 0,69.230765 m 0,10.62992 0,69.23076 m 0,10.62992 0,69.23076 m 0,10.62992 0,69.23077 m 0,10.62992 0,69.23076 m 0,10.62992 0,69.23076 m 0,10.62992 0,69.23077 m 0,10.62992 0,69.23076 m 0,10.62992 0,69.23076 m 0,10.62992 0,69.23076 m 0,10.62993 0,69.23076 m 0,10.62992 0,69.23076 m 0,10.62988 0,39.9304 m 10.44168,-1048.8188173 0,39.9303413 m 0,10.629921 0,69.230765 m 0,10.62992 0,69.23076 m 0,10.62992 0,69.23076 m 0,10.62992 0,69.23077 m 0,10.62992 0,69.23076 m 0,10.62992 0,69.23076 m 0,10.62992 0,69.23077 m 0,10.62992 0,69.23076 m 0,10.62992 0,69.23076 m 0,10.62992 0,69.23076 m 0,10.62993 0,69.23076 m 0,10.62992 0,69.23076 m 0,10.62988 0,39.9304 m 10.44168,-1048.8188173 0,39.9303413 m 0,10.629921 0,69.230765 m 0,10.62992 0,69.23076 m 0,10.62992 0,69.23076 m 0,10.62992 0,69.23077 m 0,10.62992 0,69.23076 m 0,10.62992 0,69.23076 m 0,10.62992 0,69.23077 m 0,10.62992 0,69.23076 m 0,10.62992 0,69.23076 m 0,10.62992 0,69.23076 m 0,10.62993 0,69.23076 m 0,10.62992 0,69.23076 m 0,10.62988 0,39.9304 m 10.44168,-1048.8188173 0,39.9303413 m 0,10.629921 0,69.230765 m 0,10.62992 0,69.23076 m 0,10.62992 0,69.23076 m 0,10.62992 0,69.23077 m 0,10.62992 0,69.23076 m 0,10.62992 0,69.23076 m 0,10.62992 0,69.23077 m 0,10.62992 0,69.23076 m 0,10.62992 0,69.23076 m 0,10.62992 0,69.23076 m 0,10.62993 0,69.23076 m 0,10.62992 0,69.23076 m 0,10.62988 0,39.9304 m 10.44169,-1048.8188173 0,39.9303413 m 0,10.629921 0,69.230765 m 0,10.62992 0,69.23076 m 0,10.62992 0,69.23076 m 0,10.62992 0,69.23077 m 0,10.62992 0,69.23076 m 0,10.62992 0,69.23076 m 0,10.62992 0,69.23077 m 0,10.62992 0,69.23076 m 0,10.62992 0,69.23076 m 0,10.62992 0,69.23076 m 0,10.62993 0,69.23076 m 0,10.62992 0,69.23076 m 0,10.62988 0,39.9304 m 10.44168,-1048.8188173 0,39.9303413 m 0,10.629921 0,69.230765 m 0,10.62992 0,69.23076 m 0,10.62992 0,69.23076 m 0,10.62992 0,69.23077 m 0,10.62992 0,69.23076 m 0,10.62992 0,69.23076 m 0,10.62992 0,69.23077 m 0,10.62992 0,69.23076 m 0,10.62992 0,69.23076 m 0,10.62992 0,69.23076 m 0,10.62993 0,69.23076 m 0,10.62992 0,69.23076 m 0,10.62988 0,39.9304 m 10.44168,-1048.8188173 0,39.9303413 m 0,10.629921 0,69.230765 m 0,10.62992 0,69.23076 m 0,10.62992 0,69.23076 m 0,10.62992 0,69.23077 m 0,10.62992 0,69.23076 m 0,10.62992 0,69.23076 m 0,10.62992 0,69.23077 m 0,10.62992 0,69.23076 m 0,10.62992 0,69.23076 m 0,10.62992 0,69.23076 m 0,10.62993 0,69.23076 m 0,10.62992 0,69.23076 m 0,10.62988 0,39.9304 m 10.44168,-1048.8188173 0,39.9303413 m 0,10.629921 0,69.230765 m 0,10.62992 0,69.23076 m 0,10.62992 0,69.23076 m 0,10.62992 0,69.23077 m 0,10.62992 0,69.23076 m 0,10.62992 0,69.23076 m 0,10.62992 0,69.23077 m 0,10.62992 0,69.23076 m 0,10.62992 0,69.23076 m 0,10.62992 0,69.23076 m 0,10.62993 0,69.23076 m 0,10.62992 0,69.23076 m 0,10.62988 0,39.9304 m 10.44169,-1048.8188173 0,39.9303413 m 0,10.629921 0,69.230765 m 0,10.62992 0,69.23076 m 0,10.62992 0,69.23076 m 0,10.62992 0,69.23077 m 0,10.62992 0,69.23076 m 0,10.62992 0,69.23076 m 0,10.62992 0,69.23077 m 0,10.62992 0,69.23076 m 0,10.62992 0,69.23076 m 0,10.62992 0,69.23076 m 0,10.62993 0,69.23076 m 0,10.62992 0,69.23076 m 0,10.62988 0,39.9304 m 10.44168,-1048.8188173 0,39.9303413 m 0,10.629921 0,69.230765 m 0,10.62992 0,69.23076 m 0,10.62992 0,69.23076 m 0,10.62992 0,69.23077 m 0,10.62992 0,69.23076 m 0,10.62992 0,69.23076 m 0,10.62992 0,69.23077 m 0,10.62992 0,69.23076 m 0,10.62992 0,69.23076 m 0,10.62992 0,69.23076 m 0,10.62993 0,69.23076 m 0,10.62992 0,69.23076 m 0,10.62988 0,39.9304 m 10.44168,-1048.8188173 0,39.9303413 m 0,10.629921 0,69.230765 m 0,10.62992 0,69.23076 m 0,10.62992 0,69.23076 m 0,10.62992 0,69.23077 m 0,10.62992 0,69.23076 m 0,10.62992 0,69.23076 m 0,10.62992 0,69.23077 m 0,10.62992 0,69.23076 m 0,10.62992 0,69.23076 m 0,10.62992 0,69.23076 m 0,10.62993 0,69.23076 m 0,10.62992 0,69.23076 m 0,10.62988 0,39.9304 m 10.44169,-1048.8188173 0,39.9303413 m 0,10.629921 0,69.230765 m 0,10.62992 0,69.23076 m 0,10.62992 0,69.23076 m 0,10.62992 0,69.23077 m 0,10.62992 0,69.23076 m 0,10.62992 0,69.23076 m 0,10.62992 0,69.23077 m 0,10.62992 0,69.23076 m 0,10.62992 0,69.23076 m 0,10.62992 0,69.23076 m 0,10.62993 0,69.23076 m 0,10.62992 0,69.23076 m 0,10.62988 0,39.9304 m 10.44168,-1048.8188173 0,39.9303413 m 0,10.629921 0,69.230765 m 0,10.62992 0,69.23076 m 0,10.62992 0,69.23076 m 0,10.62992 0,69.23077 m 0,10.62992 0,69.23076 m 0,10.62992 0,69.23076 m 0,10.62992 0,69.23077 m 0,10.62992 0,69.23076 m 0,10.62992 0,69.23076 m 0,10.62992 0,69.23076 m 0,10.62993 0,69.23076 m 0,10.62992 0,69.23076 m 0,10.62988 0,39.9304 m 10.44168,-1048.8188173 0,39.9303413 m 0,10.629921 0,69.230765 m 0,10.62992 0,69.23076 m 0,10.62992 0,69.23076 m 0,10.62992 0,69.23077 m 0,10.62992 0,69.23076 m 0,10.62992 0,69.23076 m 0,10.62992 0,69.23077 m 0,10.62992 0,69.23076 m 0,10.62992 0,69.23076 m 0,10.62992 0,69.23076 m 0,10.62993 0,69.23076 m 0,10.62992 0,69.23076 m 0,10.62988 0,39.9304 m 10.44168,-1048.8188173 0,39.9303413 m 0,10.629921 0,69.230765 m 0,10.62992 0,69.23076 m 0,10.62992 0,69.23076 m 0,10.62992 0,69.23077 m 0,10.62992 0,69.23076 m 0,10.62992 0,69.23076 m 0,10.62992 0,69.23077 m 0,10.62992 0,69.23076 m 0,10.62992 0,69.23076 m 0,10.62992 0,69.23076 m 0,10.62993 0,69.23076 m 0,10.62992 0,69.23076 m 0,10.62988 0,39.9304 m 10.44169,-1048.8188173 0,39.9303413 m 0,10.629921 0,69.230765 m 0,10.62992 0,69.23076 m 0,10.62992 0,69.23076 m 0,10.62992 0,69.23077 m 0,10.62992 0,69.23076 m 0,10.62992 0,69.23076 m 0,10.62992 0,69.23077 m 0,10.62992 0,69.23076 m 0,10.62992 0,69.23076 m 0,10.62992 0,69.23076 m 0,10.62993 0,69.23076 m 0,10.62992 0,69.23076 m 0,10.62988 0,39.9304 m 10.44168,-1048.8188173 0,39.9303413 m 0,10.629921 0,69.230765 m 0,10.62992 0,69.23076 m 0,10.62992 0,69.23076 m 0,10.62992 0,69.23077 m 0,10.62992 0,69.23076 m 0,10.62992 0,69.23076 m 0,10.62992 0,69.23077 m 0,10.62992 0,69.23076 m 0,10.62992 0,69.23076 m 0,10.62992 0,69.23076 m 0,10.62993 0,69.23076 m 0,10.62992 0,69.23076 m 0,10.62988 0,39.9304 M 813.0782,-3.5433173 l 0,39.9303413 m 0,10.629921 0,69.230765 m 0,10.62992 0,69.23076 m 0,10.62992 0,69.23076 m 0,10.62992 0,69.23077 m 0,10.62992 0,69.23076 m 0,10.62992 0,69.23076 m 0,10.62992 0,69.23077 m 0,10.62992 0,69.23076 m 0,10.62992 0,69.23076 m 0,10.62992 0,69.23076 m 0,10.62993 0,69.23076 m 0,10.62992 0,69.23076 m 0,10.62988 0,39.9304 m 10.44169,-1048.8188173 0,39.9303413 m 0,10.629921 0,69.230765 m 0,10.62992 0,69.23076 m 0,10.62992 0,69.23076 m 0,10.62992 0,69.23077 m 0,10.62992 0,69.23076 m 0,10.62992 0,69.23076 m 0,10.62992 0,69.23077 m 0,10.62992 0,69.23076 m 0,10.62992 0,69.23076 m 0,10.62992 0,69.23076 m 0,10.62993 0,69.23076 m 0,10.62992 0,69.23076 m 0,10.62988 0,39.9304 m 10.44168,-1048.8188173 0,39.9303413 m 0,10.629921 0,69.230765 m 0,10.62992 0,69.23076 m 0,10.62992 0,69.23076 m 0,10.62992 0,69.23077 m 0,10.62992 0,69.23076 m 0,10.62992 0,69.23076 m 0,10.62992 0,69.23077 m 0,10.62992 0,69.23076 m 0,10.62992 0,69.23076 m 0,10.62992 0,69.23076 m 0,10.62993 0,69.23076 m 0,10.62992 0,69.23076 m 0,10.62988 0,39.9304 m 10.44168,-1048.8188173 0,39.9303413 m 0,10.629921 0,69.230765 m 0,10.62992 0,69.23076 m 0,10.62992 0,69.23076 m 0,10.62992 0,69.23077 m 0,10.62992 0,69.23076 m 0,10.62992 0,69.23076 m 0,10.62992 0,69.23077 m 0,10.62992 0,69.23076 m 0,10.62992 0,69.23076 m 0,10.62992 0,69.23076 m 0,10.62993 0,69.23076 m 0,10.62992 0,69.23076 m 0,10.62988 0,39.9304 m 10.44168,-1048.8188173 0,39.9303413 m 0,10.629921 0,69.230765 m 0,10.62992 0,69.23076 m 0,10.62992 0,69.23076 m 0,10.62992 0,69.23077 m 0,10.62992 0,69.23076 m 0,10.62992 0,69.23076 m 0,10.62992 0,69.23077 m 0,10.62992 0,69.23076 m 0,10.62992 0,69.23076 m 0,10.62992 0,69.23076 m 0,10.62993 0,69.23076 m 0,10.62992 0,69.23076 m 0,10.62988 0,39.9304 m 10.44169,-1048.8188173 0,39.9303413 m 0,10.629921 0,69.230765 m 0,10.62992 0,69.23076 m 0,10.62992 0,69.23076 m 0,10.62992 0,69.23077 m 0,10.62992 0,69.23076 m 0,10.62992 0,69.23076 m 0,10.62992 0,69.23077 m 0,10.62992 0,69.23076 m 0,10.62992 0,69.23076 m 0,10.62992 0,69.23076 m 0,10.62993 0,69.23076 m 0,10.62992 0,69.23076 m 0,10.62988 0,39.9304 M 875.7283,-3.5433173 l 0,39.9303413 m 0,10.629921 0,69.230765 m 0,10.62992 0,69.23076 m 0,10.62992 0,69.23076 m 0,10.62992 0,69.23077 m 0,10.62992 0,69.23076 m 0,10.62992 0,69.23076 m 0,10.62992 0,69.23077 m 0,10.62992 0,69.23076 m 0,10.62992 0,69.23076 m 0,10.62992 0,69.23076 m 0,10.62993 0,69.23076 m 0,10.62992 0,69.23076 m 0,10.62988 0,39.9304 M 546.81529,7.086604 l 0,69.230762 m 0,10.629921 0,69.230763 m 0,10.62992 0,69.23076 m 0,10.62992 0,69.23076 m 0,10.62993 0,69.23076 m 0,10.62992 0,69.23076 m 0,10.62992 0,69.23076 m 0,10.62992 0,69.23077 m 0,10.62992 0,69.23076 m 0,10.62992 0,69.23076 m 0,10.62992 0,69.23077 m 0,10.62992 0,69.23076 m 0,10.62992 0,69.2308 m 0,10.6299 0,0 M 557.25697,7.086604 l 0,69.230762 m 0,10.629921 0,69.230763 m 0,10.62992 0,69.23076 m 0,10.62992 0,69.23076 m 0,10.62993 0,69.23076 m 0,10.62992 0,69.23076 m 0,10.62992 0,69.23076 m 0,10.62992 0,69.23077 m 0,10.62992 0,69.23076 m 0,10.62992 0,69.23076 m 0,10.62992 0,69.23077 m 0,10.62992 0,69.23076 m 0,10.62992 0,69.2308 m 0,10.6299 0,0 M 567.69866,7.086604 l 0,69.230762 m 0,10.629921 0,69.230763 m 0,10.62992 0,69.23076 m 0,10.62992 0,69.23076 m 0,10.62993 0,69.23076 m 0,10.62992 0,69.23076 m 0,10.62992 0,69.23076 m 0,10.62992 0,69.23077 m 0,10.62992 0,69.23076 m 0,10.62992 0,69.23076 m 0,10.62992 0,69.23077 m 0,10.62992 0,69.23076 m 0,10.62992 0,69.2308 m 0,10.6299 0,0 M 578.14034,7.086604 l 0,69.230762 m 0,10.629921 0,69.230763 m 0,10.62992 0,69.23076 m 0,10.62992 0,69.23076 m 0,10.62993 0,69.23076 m 0,10.62992 0,69.23076 m 0,10.62992 0,69.23076 m 0,10.62992 0,69.23077 m 0,10.62992 0,69.23076 m 0,10.62992 0,69.23076 m 0,10.62992 0,69.23077 m 0,10.62992 0,69.23076 m 0,10.62992 0,69.2308 m 0,10.6299 0,0 M 588.58202,7.086604 l 0,69.230762 m 0,10.629921 0,69.230763 m 0,10.62992 0,69.23076 m 0,10.62992 0,69.23076 m 0,10.62993 0,69.23076 m 0,10.62992 0,69.23076 m 0,10.62992 0,69.23076 m 0,10.62992 0,69.23077 m 0,10.62992 0,69.23076 m 0,10.62992 0,69.23076 m 0,10.62992 0,69.23077 m 0,10.62992 0,69.23076 m 0,10.62992 0,69.2308 m 0,10.6299 0,0 M 599.02371,7.086604 l 0,69.230762 m 0,10.629921 0,69.230763 m 0,10.62992 0,69.23076 m 0,10.62992 0,69.23076 m 0,10.62993 0,69.23076 m 0,10.62992 0,69.23076 m 0,10.62992 0,69.23076 m 0,10.62992 0,69.23077 m 0,10.62992 0,69.23076 m 0,10.62992 0,69.23076 m 0,10.62992 0,69.23077 m 0,10.62992 0,69.23076 m 0,10.62992 0,69.2308 m 0,10.6299 0,0 M 609.46539,7.086604 l 0,69.230762 m 0,10.629921 0,69.230763 m 0,10.62992 0,69.23076 m 0,10.62992 0,69.23076 m 0,10.62993 0,69.23076 m 0,10.62992 0,69.23076 m 0,10.62992 0,69.23076 m 0,10.62992 0,69.23077 m 0,10.62992 0,69.23076 m 0,10.62992 0,69.23076 m 0,10.62992 0,69.23077 m 0,10.62992 0,69.23076 m 0,10.62992 0,69.2308 m 0,10.6299 0,0 M 619.90707,7.086604 l 0,69.230762 m 0,10.629921 0,69.230763 m 0,10.62992 0,69.23076 m 0,10.62992 0,69.23076 m 0,10.62993 0,69.23076 m 0,10.62992 0,69.23076 m 0,10.62992 0,69.23076 m 0,10.62992 0,69.23077 m 0,10.62992 0,69.23076 m 0,10.62992 0,69.23076 m 0,10.62992 0,69.23077 m 0,10.62992 0,69.23076 m 0,10.62992 0,69.2308 m 0,10.6299 0,0 M 630.34875,7.086604 l 0,69.230762 m 0,10.629921 0,69.230763 m 0,10.62992 0,69.23076 m 0,10.62992 0,69.23076 m 0,10.62993 0,69.23076 m 0,10.62992 0,69.23076 m 0,10.62992 0,69.23076 m 0,10.62992 0,69.23077 m 0,10.62992 0,69.23076 m 0,10.62992 0,69.23076 m 0,10.62992 0,69.23077 m 0,10.62992 0,69.23076 m 0,10.62992 0,69.2308 m 0,10.6299 0,0 M 640.79044,7.086604 l 0,69.230762 m 0,10.629921 0,69.230763 m 0,10.62992 0,69.23076 m 0,10.62992 0,69.23076 m 0,10.62993 0,69.23076 m 0,10.62992 0,69.23076 m 0,10.62992 0,69.23076 m 0,10.62992 0,69.23077 m 0,10.62992 0,69.23076 m 0,10.62992 0,69.23076 m 0,10.62992 0,69.23077 m 0,10.62992 0,69.23076 m 0,10.62992 0,69.2308 m 0,10.6299 0,0 M 651.23212,7.086604 l 0,69.230762 m 0,10.629921 0,69.230763 m 0,10.62992 0,69.23076 m 0,10.62992 0,69.23076 m 0,10.62993 0,69.23076 m 0,10.62992 0,69.23076 m 0,10.62992 0,69.23076 m 0,10.62992 0,69.23077 m 0,10.62992 0,69.23076 m 0,10.62992 0,69.23076 m 0,10.62992 0,69.23077 m 0,10.62992 0,69.23076 m 0,10.62992 0,69.2308 m 0,10.6299 0,0 M 661.6738,7.086604 l 0,69.230762 m 0,10.629921 0,69.230763 m 0,10.62992 0,69.23076 m 0,10.62992 0,69.23076 m 0,10.62993 0,69.23076 m 0,10.62992 0,69.23076 m 0,10.62992 0,69.23076 m 0,10.62992 0,69.23077 m 0,10.62992 0,69.23076 m 0,10.62992 0,69.23076 m 0,10.62992 0,69.23077 m 0,10.62992 0,69.23076 m 0,10.62992 0,69.2308 m 0,10.6299 0,0 M 672.11549,7.086604 l 0,69.230762 m 0,10.629921 0,69.230763 m 0,10.62992 0,69.23076 m 0,10.62992 0,69.23076 m 0,10.62993 0,69.23076 m 0,10.62992 0,69.23076 m 0,10.62992 0,69.23076 m 0,10.62992 0,69.23077 m 0,10.62992 0,69.23076 m 0,10.62992 0,69.23076 m 0,10.62992 0,69.23077 m 0,10.62992 0,69.23076 m 0,10.62992 0,69.2308 m 0,10.6299 0,0 M 682.55717,7.086604 l 0,69.230762 m 0,10.629921 0,69.230763 m 0,10.62992 0,69.23076 m 0,10.62992 0,69.23076 m 0,10.62993 0,69.23076 m 0,10.62992 0,69.23076 m 0,10.62992 0,69.23076 m 0,10.62992 0,69.23077 m 0,10.62992 0,69.23076 m 0,10.62992 0,69.23076 m 0,10.62992 0,69.23077 m 0,10.62992 0,69.23076 m 0,10.62992 0,69.2308 m 0,10.6299 0,0 M 692.99885,7.086604 l 0,69.230762 m 0,10.629921 0,69.230763 m 0,10.62992 0,69.23076 m 0,10.62992 0,69.23076 m 0,10.62993 0,69.23076 m 0,10.62992 0,69.23076 m 0,10.62992 0,69.23076 m 0,10.62992 0,69.23077 m 0,10.62992 0,69.23076 m 0,10.62992 0,69.23076 m 0,10.62992 0,69.23077 m 0,10.62992 0,69.23076 m 0,10.62992 0,69.2308 m 0,10.6299 0,0 M 703.44053,7.086604 l 0,69.230762 m 0,10.629921 0,69.230763 m 0,10.62992 0,69.23076 m 0,10.62992 0,69.23076 m 0,10.62993 0,69.23076 m 0,10.62992 0,69.23076 m 0,10.62992 0,69.23076 m 0,10.62992 0,69.23077 m 0,10.62992 0,69.23076 m 0,10.62992 0,69.23076 m 0,10.62992 0,69.23077 m 0,10.62992 0,69.23076 m 0,10.62992 0,69.2308 m 0,10.6299 0,0 M 713.88222,7.086604 l 0,69.230762 m 0,10.629921 0,69.230763 m 0,10.62992 0,69.23076 m 0,10.62992 0,69.23076 m 0,10.62993 0,69.23076 m 0,10.62992 0,69.23076 m 0,10.62992 0,69.23076 m 0,10.62992 0,69.23077 m 0,10.62992 0,69.23076 m 0,10.62992 0,69.23076 m 0,10.62992 0,69.23077 m 0,10.62992 0,69.23076 m 0,10.62992 0,69.2308 m 0,10.6299 0,0 M 724.3239,7.086604 l 0,69.230762 m 0,10.629921 0,69.230763 m 0,10.62992 0,69.23076 m 0,10.62992 0,69.23076 m 0,10.62993 0,69.23076 m 0,10.62992 0,69.23076 m 0,10.62992 0,69.23076 m 0,10.62992 0,69.23077 m 0,10.62992 0,69.23076 m 0,10.62992 0,69.23076 m 0,10.62992 0,69.23077 m 0,10.62992 0,69.23076 m 0,10.62992 0,69.2308 m 0,10.6299 0,0 M 734.76558,7.086604 l 0,69.230762 m 0,10.629921 0,69.230763 m 0,10.62992 0,69.23076 m 0,10.62992 0,69.23076 m 0,10.62993 0,69.23076 m 0,10.62992 0,69.23076 m 0,10.62992 0,69.23076 m 0,10.62992 0,69.23077 m 0,10.62992 0,69.23076 m 0,10.62992 0,69.23076 m 0,10.62992 0,69.23077 m 0,10.62992 0,69.23076 m 0,10.62992 0,69.2308 m 0,10.6299 0,0 M 745.20726,7.086604 l 0,69.230762 m 0,10.629921 0,69.230763 m 0,10.62992 0,69.23076 m 0,10.62992 0,69.23076 m 0,10.62993 0,69.23076 m 0,10.62992 0,69.23076 m 0,10.62992 0,69.23076 m 0,10.62992 0,69.23077 m 0,10.62992 0,69.23076 m 0,10.62992 0,69.23076 m 0,10.62992 0,69.23077 m 0,10.62992 0,69.23076 m 0,10.62992 0,69.2308 m 0,10.6299 0,0 M 755.64895,7.086604 l 0,69.230762 m 0,10.629921 0,69.230763 m 0,10.62992 0,69.23076 m 0,10.62992 0,69.23076 m 0,10.62993 0,69.23076 m 0,10.62992 0,69.23076 m 0,10.62992 0,69.23076 m 0,10.62992 0,69.23077 m 0,10.62992 0,69.23076 m 0,10.62992 0,69.23076 m 0,10.62992 0,69.23077 m 0,10.62992 0,69.23076 m 0,10.62992 0,69.2308 m 0,10.6299 0,0 M 766.09063,7.086604 l 0,69.230762 m 0,10.629921 0,69.230763 m 0,10.62992 0,69.23076 m 0,10.62992 0,69.23076 m 0,10.62993 0,69.23076 m 0,10.62992 0,69.23076 m 0,10.62992 0,69.23076 m 0,10.62992 0,69.23077 m 0,10.62992 0,69.23076 m 0,10.62992 0,69.23076 m 0,10.62992 0,69.23077 m 0,10.62992 0,69.23076 m 0,10.62992 0,69.2308 m 0,10.6299 0,0 M 776.53231,7.086604 l 0,69.230762 m 0,10.629921 0,69.230763 m 0,10.62992 0,69.23076 m 0,10.62992 0,69.23076 m 0,10.62993 0,69.23076 m 0,10.62992 0,69.23076 m 0,10.62992 0,69.23076 m 0,10.62992 0,69.23077 m 0,10.62992 0,69.23076 m 0,10.62992 0,69.23076 m 0,10.62992 0,69.23077 m 0,10.62992 0,69.23076 m 0,10.62992 0,69.2308 m 0,10.6299 0,0 M 786.974,7.086604 l 0,69.230762 m 0,10.629921 0,69.230763 m 0,10.62992 0,69.23076 m 0,10.62992 0,69.23076 m 0,10.62993 0,69.23076 m 0,10.62992 0,69.23076 m 0,10.62992 0,69.23076 m 0,10.62992 0,69.23077 m 0,10.62992 0,69.23076 m 0,10.62992 0,69.23076 m 0,10.62992 0,69.23077 m 0,10.62992 0,69.23076 m 0,10.62992 0,69.2308 m 0,10.6299 0,0 M 797.41568,7.086604 l 0,69.230762 m 0,10.629921 0,69.230763 m 0,10.62992 0,69.23076 m 0,10.62992 0,69.23076 m 0,10.62993 0,69.23076 m 0,10.62992 0,69.23076 m 0,10.62992 0,69.23076 m 0,10.62992 0,69.23077 m 0,10.62992 0,69.23076 m 0,10.62992 0,69.23076 m 0,10.62992 0,69.23077 m 0,10.62992 0,69.23076 m 0,10.62992 0,69.2308 m 0,10.6299 0,0 M 807.85736,7.086604 l 0,69.230762 m 0,10.629921 0,69.230763 m 0,10.62992 0,69.23076 m 0,10.62992 0,69.23076 m 0,10.62993 0,69.23076 m 0,10.62992 0,69.23076 m 0,10.62992 0,69.23076 m 0,10.62992 0,69.23077 m 0,10.62992 0,69.23076 m 0,10.62992 0,69.23076 m 0,10.62992 0,69.23077 m 0,10.62992 0,69.23076 m 0,10.62992 0,69.2308 m 0,10.6299 0,0 M 818.29904,7.086604 l 0,69.230762 m 0,10.629921 0,69.230763 m 0,10.62992 0,69.23076 m 0,10.62992 0,69.23076 m 0,10.62993 0,69.23076 m 0,10.62992 0,69.23076 m 0,10.62992 0,69.23076 m 0,10.62992 0,69.23077 m 0,10.62992 0,69.23076 m 0,10.62992 0,69.23076 m 0,10.62992 0,69.23077 m 0,10.62992 0,69.23076 m 0,10.62992 0,69.2308 m 0,10.6299 0,0 M 828.74073,7.086604 l 0,69.230762 m 0,10.629921 0,69.230763 m 0,10.62992 0,69.23076 m 0,10.62992 0,69.23076 m 0,10.62993 0,69.23076 m 0,10.62992 0,69.23076 m 0,10.62992 0,69.23076 m 0,10.62992 0,69.23077 m 0,10.62992 0,69.23076 m 0,10.62992 0,69.23076 m 0,10.62992 0,69.23077 m 0,10.62992 0,69.23076 m 0,10.62992 0,69.2308 m 0,10.6299 0,0 M 839.18241,7.086604 l 0,69.230762 m 0,10.629921 0,69.230763 m 0,10.62992 0,69.23076 m 0,10.62992 0,69.23076 m 0,10.62993 0,69.23076 m 0,10.62992 0,69.23076 m 0,10.62992 0,69.23076 m 0,10.62992 0,69.23077 m 0,10.62992 0,69.23076 m 0,10.62992 0,69.23076 m 0,10.62992 0,69.23077 m 0,10.62992 0,69.23076 m 0,10.62992 0,69.2308 m 0,10.6299 0,0 M 849.62409,7.086604 l 0,69.230762 m 0,10.629921 0,69.230763 m 0,10.62992 0,69.23076 m 0,10.62992 0,69.23076 m 0,10.62993 0,69.23076 m 0,10.62992 0,69.23076 m 0,10.62992 0,69.23076 m 0,10.62992 0,69.23077 m 0,10.62992 0,69.23076 m 0,10.62992 0,69.23076 m 0,10.62992 0,69.23077 m 0,10.62992 0,69.23076 m 0,10.62992 0,69.2308 m 0,10.6299 0,0 M 860.06578,7.086604 l 0,69.230762 m 0,10.629921 0,69.230763 m 0,10.62992 0,69.23076 m 0,10.62992 0,69.23076 m 0,10.62993 0,69.23076 m 0,10.62992 0,69.23076 m 0,10.62992 0,69.23076 m 0,10.62992 0,69.23077 m 0,10.62992 0,69.23076 m 0,10.62992 0,69.23076 m 0,10.62992 0,69.23077 m 0,10.62992 0,69.23076 m 0,10.62992 0,69.2308 m 0,10.6299 0,0 M 870.50746,7.086604 l 0,69.230762 m 0,10.629921 0,69.230763 m 0,10.62992 0,69.23076 m 0,10.62992 0,69.23076 m 0,10.62993 0,69.23076 m 0,10.62992 0,69.23076 m 0,10.62992 0,69.23076 m 0,10.62992 0,69.23077 m 0,10.62992 0,69.23076 m 0,10.62992 0,69.23076 m 0,10.62992 0,69.23077 m 0,10.62992 0,69.23076 m 0,10.62992 0,69.2308 m 0,10.6299 0,0"
       style="fill:#d45500;stroke:#000000;stroke-width:0.35433072"
       inkscape:connector-curvature="0">
      <desc
         id="desc3220">Hinge cut parameters: actual(requested)
cut length: 19.54 mm (19.00 mm)
gap length: 3.00 mm (3.00 mm)
separation distance: 1.47 mm (1.50 mm)</desc>
    </path>
  </g>
</svg>
